<?xml version="1.0" encoding="UTF-8"?>
<svg id="Layer_2" data-name="Layer 2" xmlns="http://www.w3.org/2000/svg" xmlns:xlink="http://www.w3.org/1999/xlink" viewBox="0 0 321.91 360">
  <defs>
    <style>
      .cls-1 {
        fill: url(#linear-gradient-2);
      }

      .cls-2 {
        fill: url(#linear-gradient-4);
      }

      .cls-3 {
        fill: url(#linear-gradient-3);
      }

      .cls-4 {
        fill: url(#linear-gradient);
      }
    </style>
    <linearGradient id="linear-gradient" x1="39.77" y1="-12.25" x2="315.45" y2="318.41" gradientUnits="userSpaceOnUse">
      <stop offset="0" stop-color="#cda984"/>
      <stop offset="1" stop-color="#b48a65"/>
    </linearGradient>
    <linearGradient id="linear-gradient-2" x1="41.98" y1="-14.09" x2="317.66" y2="316.57" xlink:href="#linear-gradient"/>
    <linearGradient id="linear-gradient-3" x1="47.77" y1="-18.91" x2="323.45" y2="311.74" xlink:href="#linear-gradient"/>
    <linearGradient id="linear-gradient-4" x1="45.54" y1="-17.06" x2="321.22" y2="313.6" xlink:href="#linear-gradient"/>
  </defs>
  <g id="Layer_1-2" data-name="Layer 1">
    <g>
      <path class="cls-4" d="M160.96,327.44c-70.8,0-128.41-57.6-128.41-128.39V20.73h13.71v178.32c0,63.24,51.45,114.68,114.7,114.68s114.68-51.45,114.68-114.68V20.73h13.71v178.32c0,70.79-57.6,128.39-128.39,128.39Z"/>
      <path class="cls-1" d="M160.96,360C72.21,360,0,287.8,0,199.05V0h13.71v199.05c0,81.19,66.06,147.24,147.26,147.24s147.24-66.05,147.24-147.24V0h13.71v199.05c0,88.75-72.2,160.95-160.95,160.95Z"/>
      <path class="cls-3" d="M160.96,294.89c-52.85,0-95.85-42.99-95.85-95.83V0h13.71v199.05c0,45.28,36.85,82.13,82.14,82.13s82.13-36.84,82.13-82.13V0h13.71v199.05c0,52.84-42.99,95.83-95.83,95.83Z"/>
      <path class="cls-2" d="M160.96,262.33c-16.9,0-32.8-6.58-44.77-18.52-11.95-11.95-18.53-27.84-18.53-44.76V20.73h13.71v178.32c0,13.25,5.15,25.7,14.51,35.06,9.37,9.36,21.83,14.51,35.08,14.51,27.33,0,49.57-22.24,49.57-49.57V20.73h13.71v178.32c0,34.89-28.39,63.28-63.28,63.28Z"/>
    </g>
  </g>
</svg>